<svg width="134" height="144" viewBox="0 0 134 144" fill="none" xmlns="http://www.w3.org/2000/svg">
<circle cx="67" cy="67" r="67" fill="white"/>
<path d="M57.096 87.68V80.128C57.096 75.9467 57.6507 72.5333 58.76 69.888C59.8693 67.2427 61.2773 64.9813 62.984 63.104C64.6907 61.2267 66.44 59.4773 68.232 57.856C70.792 55.7227 73.0107 53.504 74.888 51.2C76.7653 48.896 77.704 45.8667 77.704 42.112C77.704 39.7227 77.1067 37.632 75.912 35.84C74.7173 34.048 73.224 32.6827 71.432 31.744C69.64 30.72 67.7627 30.208 65.8 30.208C63.0693 30.208 60.7227 30.8053 58.76 32C56.7973 33.1093 55.176 34.6453 53.896 36.608C52.616 38.4853 51.5493 40.5333 50.696 42.752L38.792 37.376C39.3893 35.584 40.3707 33.536 41.736 31.232C43.1013 28.928 44.8933 26.6667 47.112 24.448C49.416 22.2293 52.232 20.3947 55.56 18.944C58.888 17.4933 62.7707 16.768 67.208 16.768C72.072 16.768 76.424 17.664 80.264 19.456C84.104 21.248 87.176 23.936 89.48 27.52C91.784 31.0187 92.936 35.456 92.936 40.832C92.936 45.184 92.296 48.768 91.016 51.584C89.8213 54.4 88.2853 56.832 86.408 58.88C84.616 60.928 82.696 62.8907 80.648 64.768C79.0267 66.304 77.4907 67.8827 76.04 69.504C74.5893 71.04 73.4373 72.9173 72.584 75.136C71.816 77.2693 71.432 80.0427 71.432 83.456V87.68H57.096ZM64.264 112.384C61.704 112.384 59.6133 111.701 57.992 110.336C56.3707 108.885 55.56 107.008 55.56 104.704C55.56 102.485 56.3707 100.608 57.992 99.072C59.6987 97.536 61.7893 96.768 64.264 96.768C66.824 96.768 68.9147 97.536 70.536 99.072C72.1573 100.608 72.968 102.485 72.968 104.704C72.968 107.008 72.1573 108.885 70.536 110.336C69 111.701 66.9093 112.384 64.264 112.384Z" fill="#FF8A00"/>
</svg>
